<svg id="ilustra_brindecelulares_semfundo" data-name="ilustra/brindecelulares_semfundo" xmlns="http://www.w3.org/2000/svg" width="100" height="100" viewBox="0 0 100 100">
  <g id="margem">
    <rect id="Retângulo_447" data-name="Retângulo 447" width="100" height="100" fill="none"/>
  </g>
  <g id="Grupo_1659" data-name="Grupo 1659" transform="translate(3.571 10.714)">
    <g id="Grupo_1211" data-name="Grupo 1211" transform="translate(0 34.212)">
      <g id="Grupo_1209" data-name="Grupo 1209">
        <path id="Caminho_3207" data-name="Caminho 3207" d="M37.831,101.2,7.361,123.776a49.831,49.831,0,0,0,9.6,15.65L47.776,112.6Z" transform="translate(-7.361 -101.2)" fill="#fc0"/>
      </g>
      <g id="Grupo_1210" data-name="Grupo 1210" transform="translate(52.697)">
        <path id="Caminho_3208" data-name="Caminho 3208" d="M135.747,101.2,125.8,112.6l30.818,26.826a49.831,49.831,0,0,0,9.6-15.65Z" transform="translate(-125.803 -101.2)" fill="#fb981e"/>
      </g>
    </g>
    <g id="Grupo_1212" data-name="Grupo 1212" transform="translate(44.982 0)">
      <path id="Caminho_3209" data-name="Caminho 3209" d="M109.021,38.4l-.556-12.45a1.573,1.573,0,1,1,3.144-.141c0,.046,0,.1,0,.141l-.556,12.45a1.017,1.017,0,0,1-2.031,0Z" transform="translate(-108.463 -24.305)" fill="#fc0"/>
    </g>
    <g id="Grupo_1213" data-name="Grupo 1213" transform="translate(33.008 4.928)">
      <path id="Caminho_3210" data-name="Caminho 3210" d="M87.559,46.047l-5.726-8.188a1.574,1.574,0,0,1,2.581-1.8,1.68,1.68,0,0,1,.092.149l4.781,8.774a1.017,1.017,0,0,1-1.727,1.07Z" transform="translate(-81.549 -35.382)" fill="#fc0"/>
    </g>
    <g id="Grupo_1214" data-name="Grupo 1214" transform="translate(52.276 4.408)">
      <path id="Caminho_3211" data-name="Caminho 3211" d="M124.98,44.275l5.073-9.245a1.574,1.574,0,1,1,2.76,1.515c-.027.048-.057.1-.088.141l-6.018,8.659a1.017,1.017,0,0,1-1.727-1.07Z" transform="translate(-124.856 -34.212)" fill="#fc0"/>
    </g>
    <g id="Grupo_1234" data-name="Grupo 1234" transform="translate(1.03 17.863)">
      <g id="Grupo_1222" data-name="Grupo 1222" transform="translate(4.312 0)">
        <g id="Grupo_1215" data-name="Grupo 1215" transform="translate(0)">
          <rect id="Retângulo_728" data-name="Retângulo 728" width="22.509" height="38.742" rx="2.981" transform="matrix(0.852, -0.523, 0.523, 0.852, 0, 11.774)" fill="#85180e"/>
        </g>
        <g id="Grupo_1216" data-name="Grupo 1216" transform="translate(2.942 2.865)">
          <rect id="Retângulo_729" data-name="Retângulo 729" width="18.305" height="31.787" rx="2.193" transform="matrix(0.852, -0.523, 0.523, 0.852, 0, 9.575)" fill="#fff"/>
        </g>
        <g id="Grupo_1217" data-name="Grupo 1217" transform="translate(22.851 15.062)">
          <path id="Caminho_3212" data-name="Caminho 3212" d="M78.64,98.447c-4,1.442-8.994,4.7-7.706,8.43s7.745,1.392,11.113-2.205C84.906,101.619,81.277,97.5,78.64,98.447Z" transform="translate(-70.727 -98.308)" fill="#fc0"/>
        </g>
        <g id="Grupo_1218" data-name="Grupo 1218" transform="translate(28.532 20.418)">
          <path id="Caminho_3213" data-name="Caminho 3213" d="M84.4,114.616c-2.313,2.412.328,5.206,2.361,4.959,3.064-.373,6.069-3.015,6.394-5.48a3.363,3.363,0,0,0-3.317-3.741S88.887,112.489,84.4,114.616Z" transform="translate(-83.496 -110.347)" fill="#fc0"/>
        </g>
        <g id="Grupo_1219" data-name="Grupo 1219" transform="translate(31.792 25.312)">
          <path id="Caminho_3214" data-name="Caminho 3214" d="M90.825,125.7a2.479,2.479,0,0,0,1.942,2.19c3.949.951,7.829-3.627,4.124-6.547C96.891,121.347,95.63,124.759,90.825,125.7Z" transform="translate(-90.825 -121.347)" fill="#fc0"/>
        </g>
        <g id="Grupo_1220" data-name="Grupo 1220" transform="translate(2.219 20.294)">
          <path id="Caminho_3215" data-name="Caminho 3215" d="M26.715,124.951l-2.32-9.56a1.416,1.416,0,0,1,.354-1.313l3.125-3.26a2.433,2.433,0,0,1,2.473-.642c2.6.8,7.9,2.435,8.768,2.685,2.617.752,1.239,6.376-3.462,5.951a32.6,32.6,0,0,1-3.691-.559l.62,2.776Z" transform="translate(-24.355 -110.067)" fill="#fc0"/>
        </g>
        <g id="Grupo_1221" data-name="Grupo 1221" transform="translate(20.075 9.805)">
          <path id="Caminho_3216" data-name="Caminho 3216" d="M71.25,86.668c-3.7,1.745-7.842,3.9-6.5,7.589S71.5,96.3,74.709,92.85C77.429,89.919,73.6,85.559,71.25,86.668Z" transform="translate(-64.489 -86.492)" fill="#fc0"/>
        </g>
      </g>
      <g id="Grupo_1233" data-name="Grupo 1233" transform="translate(0 9.896)">
        <g id="Grupo_1223" data-name="Grupo 1223" transform="translate(6.921 37.595)">
          <path id="Caminho_3217" data-name="Caminho 3217" d="M25.679,179.767a.445.445,0,0,1-.292-.78l8.826-7.683a.445.445,0,0,1,.585.671l-8.827,7.683A.442.442,0,0,1,25.679,179.767Z" transform="translate(-25.233 -171.194)" fill="#85180e"/>
        </g>
        <g id="Grupo_1224" data-name="Grupo 1224" transform="translate(0.227 17.228)">
          <path id="Caminho_3218" data-name="Caminho 3218" d="M10.633,136.4a.445.445,0,0,1-.265-.8l7.242-5.366-1.038-4.266a.445.445,0,0,1,.864-.21l1.108,4.553a.445.445,0,0,1-.167.463l-7.48,5.542A.443.443,0,0,1,10.633,136.4Z" transform="translate(-10.188 -125.417)" fill="#85180e"/>
        </g>
        <g id="Grupo_1225" data-name="Grupo 1225" transform="translate(23.937)">
          <path id="Caminho_3219" data-name="Caminho 3219" d="M64.515,95.362a.445.445,0,0,1-.38-.213c-1.037-1.7-1.359-4.3,3-7.014.822-.511,2.533-1.357,2.606-1.393a.445.445,0,0,1,.394.8c-.017.009-1.745.863-2.53,1.35-3.044,1.895-3.93,3.791-2.708,5.8a.444.444,0,0,1-.38.676Z" transform="translate(-63.477 -86.696)" fill="#85180e"/>
        </g>
        <g id="Grupo_1226" data-name="Grupo 1226" transform="translate(26.166 6.383)">
          <path id="Caminho_3220" data-name="Caminho 3220" d="M70.043,104.9a3.52,3.52,0,0,1-1.281-.2.445.445,0,0,1,.34-.822c.044.016,2.666.971,6.979-2.728a.445.445,0,1,1,.579.675C73.66,104.4,71.367,104.9,70.043,104.9Z" transform="translate(-68.489 -101.042)" fill="#85180e"/>
        </g>
        <g id="Grupo_1227" data-name="Grupo 1227" transform="translate(27.633 11.418)">
          <path id="Caminho_3221" data-name="Caminho 3221" d="M74.63,117.005a4.126,4.126,0,0,1-2.684-.862.445.445,0,1,1,.569-.684c.5.417,3.317,2.233,9.507-3a.445.445,0,0,1,.574.68C78.99,116.191,76.385,117.005,74.63,117.005Z" transform="translate(-71.786 -112.359)" fill="#85180e"/>
        </g>
        <g id="Grupo_1228" data-name="Grupo 1228" transform="translate(39.439 10.288)">
          <path id="Caminho_3222" data-name="Caminho 3222" d="M98.765,118.148a.445.445,0,0,1-.28-.791c2.276-1.839,2.574-3.4,2.423-4.389a3.015,3.015,0,0,0-1.8-2.29.445.445,0,0,1,.328-.828,3.938,3.938,0,0,1,2.352,2.984c.185,1.218-.14,3.111-2.744,5.215A.444.444,0,0,1,98.765,118.148Z" transform="translate(-98.32 -109.819)" fill="#85180e"/>
        </g>
        <g id="Grupo_1229" data-name="Grupo 1229" transform="translate(33.143 18.209)">
          <path id="Caminho_3223" data-name="Caminho 3223" d="M87.034,129.635a3.539,3.539,0,0,1-2.755-1.276.445.445,0,0,1,.671-.584c1.673,1.922,4.038.417,4.137.352a.445.445,0,0,1,.488.744A4.861,4.861,0,0,1,87.034,129.635Z" transform="translate(-84.169 -127.622)" fill="#85180e"/>
        </g>
        <g id="Grupo_1230" data-name="Grupo 1230" transform="translate(11.065 13.891)">
          <path id="Caminho_3224" data-name="Caminho 3224" d="M41.826,123.638q-.274,0-.557-.026a35.219,35.219,0,0,1-6.4-1.225.445.445,0,1,1,.246-.855,34.361,34.361,0,0,0,6.235,1.194,3.885,3.885,0,0,0,3.468-1.294,3.345,3.345,0,0,0,.7-2.946.445.445,0,1,1,.856-.243A4.2,4.2,0,0,1,45.5,122,4.631,4.631,0,0,1,41.826,123.638Z" transform="translate(-34.547 -117.918)" fill="#85180e"/>
        </g>
        <g id="Grupo_1231" data-name="Grupo 1231" transform="translate(0 6.543)">
          <path id="Caminho_3225" data-name="Caminho 3225" d="M10.123,105.218a.445.445,0,0,1-.226-.828l4.963-2.925a.445.445,0,1,1,.452.766l-4.963,2.925A.442.442,0,0,1,10.123,105.218Z" transform="translate(-9.677 -101.403)" fill="#85180e"/>
        </g>
        <g id="Grupo_1232" data-name="Grupo 1232" transform="translate(3.719 8.337)">
          <path id="Caminho_3226" data-name="Caminho 3226" d="M18.48,107.94a.445.445,0,0,1-.226-.828L21,105.5a.445.445,0,1,1,.452.766l-2.742,1.616A.442.442,0,0,1,18.48,107.94Z" transform="translate(-18.035 -105.434)" fill="#85180e"/>
        </g>
      </g>
    </g>
    <g id="Grupo_1254" data-name="Grupo 1254" transform="translate(48.32 17.863)">
      <g id="Grupo_1242" data-name="Grupo 1242" transform="translate(0)">
        <g id="Grupo_1235" data-name="Grupo 1235">
          <rect id="Retângulo_730" data-name="Retângulo 730" width="22.509" height="38.742" rx="2.981" transform="matrix(-0.852, -0.523, 0.523, -0.852, 19.184, 44.793)" fill="#85180e"/>
        </g>
        <g id="Grupo_1236" data-name="Grupo 1236" transform="translate(4.333 2.865)">
          <rect id="Retângulo_731" data-name="Retângulo 731" width="18.305" height="31.683" rx="2.193" transform="matrix(-0.852, -0.523, 0.523, -0.852, 15.601, 36.578)" fill="#fff"/>
        </g>
        <g id="Grupo_1237" data-name="Grupo 1237" transform="translate(4.233 15.062)">
          <path id="Caminho_3227" data-name="Caminho 3227" d="M129.933,98.447c4,1.442,8.994,4.7,7.706,8.43s-7.745,1.392-11.113-2.205C123.667,101.619,127.3,97.5,129.933,98.447Z" transform="translate(-125.48 -98.308)" fill="#fb981e"/>
        </g>
        <g id="Grupo_1238" data-name="Grupo 1238" transform="translate(1.236 20.418)">
          <path id="Caminho_3228" data-name="Caminho 3228" d="M127.525,114.616c2.313,2.412-.328,5.206-2.361,4.959-3.064-.373-6.069-3.015-6.394-5.48a3.363,3.363,0,0,1,3.317-3.741S123.034,112.489,127.525,114.616Z" transform="translate(-118.744 -110.347)" fill="#fb981e"/>
        </g>
        <g id="Grupo_1239" data-name="Grupo 1239" transform="translate(0.097 25.312)">
          <path id="Caminho_3229" data-name="Caminho 3229" d="M123.744,125.7a2.479,2.479,0,0,1-1.942,2.19c-3.949.951-7.829-3.627-4.124-6.547C117.678,121.347,118.939,124.759,123.744,125.7Z" transform="translate(-116.185 -121.347)" fill="#fb981e"/>
        </g>
        <g id="Grupo_1240" data-name="Grupo 1240" transform="translate(21.161 20.294)">
          <path id="Caminho_3230" data-name="Caminho 3230" d="M177.237,124.951l2.32-9.56a1.416,1.416,0,0,0-.354-1.313l-3.125-3.26a2.433,2.433,0,0,0-2.473-.642c-2.6.8-7.9,2.435-8.768,2.685-2.617.752-1.239,6.376,3.462,5.951a32.6,32.6,0,0,0,3.691-.559l-.62,2.776Z" transform="translate(-163.528 -110.067)" fill="#fb981e"/>
        </g>
        <g id="Grupo_1241" data-name="Grupo 1241" transform="translate(8.216 9.805)">
          <path id="Caminho_3231" data-name="Caminho 3231" d="M138.83,86.668c3.7,1.745,7.842,3.9,6.5,7.589s-6.758,2.047-9.963-1.407C132.651,89.919,136.478,85.559,138.83,86.668Z" transform="translate(-134.433 -86.492)" fill="#fb981e"/>
        </g>
      </g>
      <g id="Grupo_1253" data-name="Grupo 1253" transform="translate(0.81 9.896)">
        <g id="Grupo_1243" data-name="Grupo 1243" transform="translate(26.302 37.584)">
          <path id="Caminho_3232" data-name="Caminho 3232" d="M186.185,179.755a.442.442,0,0,1-.292-.109l-8.838-7.693a.445.445,0,0,1,.585-.671l8.837,7.693a.445.445,0,0,1-.292.78Z" transform="translate(-176.903 -171.171)" fill="#85180e"/>
        </g>
        <g id="Grupo_1244" data-name="Grupo 1244" transform="translate(34.354 17.228)">
          <path id="Caminho_3233" data-name="Caminho 3233" d="M202.924,136.4a.443.443,0,0,1-.264-.087l-7.48-5.542a.445.445,0,0,1-.168-.463l1.108-4.553a.445.445,0,0,1,.865.21l-1.038,4.266,7.243,5.366a.445.445,0,0,1-.265.8Z" transform="translate(-195 -125.417)" fill="#85180e"/>
        </g>
        <g id="Grupo_1245" data-name="Grupo 1245" transform="translate(12.111)">
          <path id="Caminho_3234" data-name="Caminho 3234" d="M150.873,95.363a.444.444,0,0,1-.38-.676c1.221-2,.335-3.9-2.708-5.8-.785-.488-2.512-1.341-2.53-1.35a.445.445,0,0,1,.394-.8c.073.036,1.784.882,2.606,1.393,4.357,2.712,4.035,5.311,3,7.014A.445.445,0,0,1,150.873,95.363Z" transform="translate(-145.008 -86.697)" fill="#85180e"/>
        </g>
        <g id="Grupo_1246" data-name="Grupo 1246" transform="translate(8.458 6.383)">
          <path id="Caminho_3235" data-name="Caminho 3235" d="M143.568,104.9c-1.324,0-3.616-.5-6.618-3.072a.445.445,0,1,1,.579-.675c4.329,3.712,6.954,2.738,6.98,2.728a.445.445,0,0,1,.34.822A3.52,3.52,0,0,1,143.568,104.9Z" transform="translate(-136.795 -101.043)" fill="#85180e"/>
        </g>
        <g id="Grupo_1247" data-name="Grupo 1247" transform="translate(4.349 11.418)">
          <path id="Caminho_3236" data-name="Caminho 3236" d="M135.686,117.005c-1.755,0-4.36-.815-7.967-3.861a.445.445,0,0,1,.574-.68c6.19,5.229,9.006,3.412,9.507,3a.445.445,0,1,1,.569.684A4.127,4.127,0,0,1,135.686,117.005Z" transform="translate(-127.561 -112.359)" fill="#85180e"/>
        </g>
        <g id="Grupo_1248" data-name="Grupo 1248" transform="translate(0 10.287)">
          <path id="Caminho_3237" data-name="Caminho 3237" d="M120.853,118.148a.442.442,0,0,1-.279-.1c-2.6-2.1-2.93-4-2.745-5.215a3.938,3.938,0,0,1,2.352-2.984.445.445,0,0,1,.328.828,3.017,3.017,0,0,0-1.8,2.29c-.15.987.148,2.55,2.424,4.389a.445.445,0,0,1-.28.791Z" transform="translate(-117.786 -109.818)" fill="#85180e"/>
        </g>
        <g id="Grupo_1249" data-name="Grupo 1249" transform="translate(4.201 18.208)">
          <path id="Caminho_3238" data-name="Caminho 3238" d="M129.971,129.635a4.862,4.862,0,0,1-2.542-.763.445.445,0,0,1,.489-.744c.107.07,2.468,1.566,4.137-.352a.445.445,0,0,1,.671.584A3.539,3.539,0,0,1,129.971,129.635Z" transform="translate(-127.229 -127.622)" fill="#85180e"/>
        </g>
        <g id="Grupo_1250" data-name="Grupo 1250" transform="translate(19.92 13.891)">
          <path id="Caminho_3239" data-name="Caminho 3239" d="M167.245,123.638A4.631,4.631,0,0,1,163.569,122a4.2,4.2,0,0,1-.872-3.757.445.445,0,1,1,.856.243,3.345,3.345,0,0,0,.7,2.946,3.889,3.889,0,0,0,3.468,1.294,34.356,34.356,0,0,0,6.234-1.194.445.445,0,1,1,.246.855,35.2,35.2,0,0,1-6.4,1.225Q167.52,123.638,167.245,123.638Z" transform="translate(-162.559 -117.918)" fill="#85180e"/>
        </g>
        <g id="Grupo_1251" data-name="Grupo 1251" transform="translate(37.27 6.52)">
          <path id="Caminho_3240" data-name="Caminho 3240" d="M206.962,105.166a.448.448,0,0,1-.226-.061l-4.963-2.925a.445.445,0,1,1,.452-.766l4.963,2.925a.445.445,0,0,1-.226.828Z" transform="translate(-201.555 -101.351)" fill="#85180e"/>
        </g>
        <g id="Grupo_1252" data-name="Grupo 1252" transform="translate(35.772 8.314)">
          <path id="Caminho_3241" data-name="Caminho 3241" d="M201.374,107.889a.445.445,0,0,1-.226-.062l-2.742-1.616a.445.445,0,1,1,.452-.767l2.742,1.616a.445.445,0,0,1-.226.828Z" transform="translate(-198.188 -105.383)" fill="#85180e"/>
        </g>
      </g>
    </g>
  </g>
</svg>
