<svg id="illustra_delivery_man" data-name="illustra/delivery_man" xmlns="http://www.w3.org/2000/svg" xmlns:xlink="http://www.w3.org/1999/xlink" width="312" height="312" viewBox="0 0 312 312">
  <defs>
    <linearGradient id="linear-gradient" x1="-0.332" y1="0.112" x2="1.901" y2="1.187" gradientUnits="objectBoundingBox">
      <stop offset="0" stop-color="#ffe598"/>
      <stop offset="1" stop-color="#ffe598"/>
    </linearGradient>
    <linearGradient id="linear-gradient-2" x1="-6.637" y1="-5.611" x2="5.693" y2="4.979" gradientUnits="objectBoundingBox">
      <stop offset="0" stop-color="#fff5d7" stop-opacity="0.969"/>
      <stop offset="1" stop-color="#ffe598"/>
    </linearGradient>
    <linearGradient id="linear-gradient-3" x1="-3.089" y1="-4.013" x2="0.669" y2="0.624" xlink:href="#linear-gradient-2"/>
  </defs>
  <g id="margem">
    <rect id="Retângulo_603" data-name="Retângulo 603" width="312" height="312" fill="none"/>
  </g>
  <g id="Grupo_1026" data-name="Grupo 1026" transform="translate(8.357 44.571)">
    <g id="Grupo_1026-2" data-name="Grupo 1026" transform="translate(0)">
      <path id="Caminho_3054" data-name="Caminho 3054" d="M21.422,112.841c-9-6.757-23.375,10.531-11.71,14.689C19.5,131.019,28.746,118.337,21.422,112.841Z" transform="translate(-5.339 -1.675)" fill="#ffe598"/>
      <path id="Caminho_3055" data-name="Caminho 3055" d="M38.982,108.392c-28.414,21.879-22.816,45.737,14.461,30.768,48.017-19.281,72.693-19.247,94.589-2.1,24.037,18.829-2.027,49.772,14.6,74.356,27.889,41.229,105.647,8.53,121.885-52.958C306.823,74.01,219.956-30.947,38.982,108.392Z" transform="translate(0.815 -29.483)" fill="#ffe598"/>
      <path id="Caminho_3056" data-name="Caminho 3056" d="M64.8,134.878c-40.825,22.339-44.142,95.5,30.881,74.891C148.52,195.253,121.861,103.655,64.8,134.878Z" transform="translate(6.774 5.059)" fill="url(#linear-gradient)"/>
      <path id="Caminho_3057" data-name="Caminho 3057" d="M163.01,41.144c12.21,1.01,9.35-8.828-2.124-8.545C154.57,32.755,150.8,40.134,163.01,41.144Z" transform="translate(53.451 -32.593)" fill="url(#linear-gradient-2)"/>
      <path id="Caminho_3058" data-name="Caminho 3058" d="M178.717,179.245c-22.637,10.573-38.024,1.149-40.621,10.162-1.692,5.876,22.609,14.093,45.431-1.139C195.5,180.279,190.2,173.878,178.717,179.245Z" transform="translate(46.782 24.243)" fill="url(#linear-gradient-3)"/>
    </g>
    <path id="Caminho_3059" data-name="Caminho 3059" d="M221.672,67.85,149.37,84.5l2.724,21.034L237.419,125.4C238.237,104.872,232.933,84.49,221.672,67.85Z" transform="translate(51.244 -18.742)" fill="#fff" opacity="0.5"/>
    <g id="Grupo_1112" data-name="Grupo 1112" transform="translate(41.557 9.658)">
      <g id="Grupo_1030" data-name="Grupo 1030" transform="translate(158.58 149.023)">
        <g id="Grupo_1027" data-name="Grupo 1027" transform="translate(0)">
          <ellipse id="Elipse_120" data-name="Elipse 120" cx="21.849" cy="23.255" rx="21.849" ry="23.255" fill="#85180e"/>
        </g>
        <g id="Grupo_1028" data-name="Grupo 1028" transform="translate(5.72 31.008)">
          <path id="Caminho_3060" data-name="Caminho 3060" d="M164.678,179.709a1.007,1.007,0,0,1-.291-.042,18.574,18.574,0,0,1-11.139-9.389,1.028,1.028,0,0,1,1.827-.942,16.517,16.517,0,0,0,9.891,8.359,1.028,1.028,0,0,1-.288,2.014Z" transform="translate(-153.134 -168.779)" fill="#fc0"/>
        </g>
        <g id="Grupo_1029" data-name="Grupo 1029" transform="translate(12.807 13.631)">
          <ellipse id="Elipse_121" data-name="Elipse 121" cx="9.043" cy="9.625" rx="9.043" ry="9.625" fill="#f2f2f2"/>
        </g>
      </g>
      <g id="Grupo_1034" data-name="Grupo 1034" transform="translate(30.994 149.023)">
        <g id="Grupo_1031" data-name="Grupo 1031">
          <ellipse id="Elipse_122" data-name="Elipse 122" cx="21.849" cy="23.255" rx="21.849" ry="23.255" fill="#85180e"/>
        </g>
        <g id="Grupo_1032" data-name="Grupo 1032" transform="translate(5.72 31.008)">
          <path id="Caminho_3061" data-name="Caminho 3061" d="M73.078,179.709a1.007,1.007,0,0,1-.291-.042,18.574,18.574,0,0,1-11.139-9.389,1.028,1.028,0,1,1,1.827-.942,16.517,16.517,0,0,0,9.891,8.359,1.028,1.028,0,0,1-.288,2.014Z" transform="translate(-61.534 -168.779)" fill="#fc0"/>
        </g>
        <g id="Grupo_1033" data-name="Grupo 1033" transform="translate(12.807 13.631)">
          <ellipse id="Elipse_123" data-name="Elipse 123" cx="9.043" cy="9.625" rx="9.043" ry="9.625" fill="#f2f2f2"/>
        </g>
      </g>
      <g id="Grupo_1035" data-name="Grupo 1035" transform="translate(151.149 57.402)">
        <circle id="Elipse_124" data-name="Elipse 124" cx="9.216" cy="9.216" r="9.216" fill="#f2f2f2"/>
      </g>
      <g id="Grupo_1036" data-name="Grupo 1036" transform="translate(149.814 56.098)">
        <path id="Caminho_3062" data-name="Caminho 3062" d="M151.977,79.8a10.6,10.6,0,0,0,2.724,21.034Z" transform="translate(-142.734 -79.802)" fill="#fb981e"/>
      </g>
      <g id="Grupo_1037" data-name="Grupo 1037" transform="translate(165.798 68.343)">
        <path id="Caminho_3063" data-name="Caminho 3063" d="M155.6,94.454a1.392,1.392,0,0,1-1.031-2.329,7.754,7.754,0,0,0,1.571-2.612,1.393,1.393,0,0,1,2.621.944A10.549,10.549,0,0,1,156.634,94,1.389,1.389,0,0,1,155.6,94.454Z" transform="translate(-154.209 -88.593)" fill="#85180e"/>
      </g>
      <g id="Grupo_1038" data-name="Grupo 1038" transform="translate(158.972 56.01)">
        <path id="Caminho_3064" data-name="Caminho 3064" d="M154.288,83.248a1.381,1.381,0,0,1-.542-.11,7.776,7.776,0,0,0-3.045-.613,1.393,1.393,0,0,1,0-2.786,10.539,10.539,0,0,1,4.13.833,1.393,1.393,0,0,1-.543,2.676Z" transform="translate(-149.309 -79.739)" fill="#85180e"/>
      </g>
      <g id="Grupo_1039" data-name="Grupo 1039" transform="translate(150.758 54.706)">
        <path id="Caminho_3065" data-name="Caminho 3065" d="M154.434,102.621a1.394,1.394,0,0,1-1.38-1.213l-2.532-19.549a9.171,9.171,0,0,0-4.631,3.084,1.393,1.393,0,1,1-2.171-1.744,11.937,11.937,0,0,1,7.813-4.386,1.4,1.4,0,0,1,1.56,1.2l2.726,21.034a1.394,1.394,0,0,1-1.2,1.561A1.6,1.6,0,0,1,154.434,102.621Z" transform="translate(-143.412 -78.803)" fill="#85180e"/>
      </g>
      <g id="Grupo_1040" data-name="Grupo 1040" transform="translate(153.241 135.671)">
        <path id="Caminho_3066" data-name="Caminho 3066" d="M198.6,159.549c-4.165-15.766-19.132-25.534-33.546-21.836S142.224,157.176,146.163,173Z" transform="translate(-145.194 -136.931)" fill="#fc0"/>
      </g>
      <g id="Grupo_1041" data-name="Grupo 1041" transform="translate(157.093 157.83)">
        <path id="Caminho_3067" data-name="Caminho 3067" d="M148.989,159.8a1.029,1.029,0,0,1-1.029-1.028,26.151,26.151,0,0,1,.5-5.11,1.028,1.028,0,0,1,2.017.4,24.088,24.088,0,0,0-.461,4.708,1.029,1.029,0,0,1-1.028,1.028Z" transform="translate(-147.96 -152.84)" fill="#fb981e"/>
      </g>
      <g id="Grupo_1042" data-name="Grupo 1042" transform="translate(159.1 144.168)">
        <path id="Caminho_3068" data-name="Caminho 3068" d="M150.429,153.859a1.028,1.028,0,0,1-.943-1.437,22.935,22.935,0,0,1,7.141-9.182,1.028,1.028,0,1,1,1.24,1.641,20.869,20.869,0,0,0-6.495,8.36A1.028,1.028,0,0,1,150.429,153.859Z" transform="translate(-149.401 -143.032)" fill="#fb981e"/>
      </g>
      <g id="Grupo_1043" data-name="Grupo 1043" transform="translate(162.124 134.277)">
        <path id="Caminho_3069" data-name="Caminho 3069" d="M152.965,144.347a1.393,1.393,0,0,1-.88-2.472,26.323,26.323,0,0,1,19.315-5.808,1.393,1.393,0,0,1-.281,2.772,23.524,23.524,0,0,0-17.273,5.2A1.392,1.392,0,0,1,152.965,144.347Z" transform="translate(-151.572 -135.931)" fill="#85180e"/>
      </g>
      <g id="Grupo_1044" data-name="Grupo 1044" transform="translate(152.817 138.68)">
        <path id="Caminho_3070" data-name="Caminho 3070" d="M146.282,173.544a1.393,1.393,0,0,1-.345-2.743l51.051-13.094a29.5,29.5,0,0,0-11.955-16.057,1.393,1.393,0,1,1,1.521-2.334,32.431,32.431,0,0,1,13.516,19.028,1.4,1.4,0,0,1-1,1.7L146.629,173.5A1.354,1.354,0,0,1,146.282,173.544Z" transform="translate(-144.889 -139.092)" fill="#85180e"/>
      </g>
      <g id="Grupo_1045" data-name="Grupo 1045" transform="translate(23.959 59.074)">
        <path id="Caminho_3071" data-name="Caminho 3071" d="M212.244,150.1c-1.591-9.1-6.124-25.833-18.769-38.345-7.637-7.558-13.908-17.643-12.143-29.813-5.771,0-13.075,4.2-12.469,10.9s2.815,13.157,3.6,16.355c2.765,11.324,8.335,42.829-6.882,69.352a5.87,5.87,0,0,1-5.092,2.929H126.26V147.629H91.375a39,39,0,0,0-39,39h0a4.657,4.657,0,0,0,4.658,4.658h50.6V195.4a8.273,8.273,0,0,0,8.274,8.274H168.7a8.273,8.273,0,0,0,8.274-8.274v-7.875l.077-.068c.741-14.66,9.944-27.43,23.741-30.969a29.63,29.63,0,0,1,6.836-.926A4.685,4.685,0,0,0,212.244,150.1Z" transform="translate(-52.376 -81.939)" fill="#fc0"/>
      </g>
      <g id="Grupo_1046" data-name="Grupo 1046" transform="translate(22.208 132.896)">
        <path id="Caminho_3072" data-name="Caminho 3072" d="M105.291,134.939H83.222a32.1,32.1,0,0,0-32.1,32.1h0a3.422,3.422,0,0,0,3.422,3.422h50.75a3.422,3.422,0,0,0,3.422-3.422v-28.68A3.422,3.422,0,0,0,105.291,134.939Z" transform="translate(-51.119 -134.939)" fill="#fb981e"/>
      </g>
      <g id="Grupo_1047" data-name="Grupo 1047" transform="translate(78.41 147.629)">
        <path id="Caminho_3073" data-name="Caminho 3073" d="M92.862,153.761a1.392,1.392,0,0,1-1.393-1.393V146.91a1.393,1.393,0,0,1,2.786,0v5.459A1.392,1.392,0,0,1,92.862,153.761Z" transform="translate(-91.469 -145.517)" fill="#85180e"/>
      </g>
      <g id="Grupo_1048" data-name="Grupo 1048" transform="translate(20.815 131.503)">
        <path id="Caminho_3074" data-name="Caminho 3074" d="M105.684,172.25H54.934a4.821,4.821,0,0,1-4.815-4.815,33.534,33.534,0,0,1,33.5-33.5,1.393,1.393,0,1,1,0,2.786,30.745,30.745,0,0,0-30.71,30.71,2.031,2.031,0,0,0,2.029,2.029h50.75a2.031,2.031,0,0,0,2.029-2.029v-6.019a1.393,1.393,0,0,1,2.786,0v6.019A4.821,4.821,0,0,1,105.684,172.25Z" transform="translate(-50.119 -133.939)" fill="#85180e"/>
      </g>
      <g id="Grupo_1049" data-name="Grupo 1049" transform="translate(29.971 148.952)">
        <path id="Caminho_3075" data-name="Caminho 3075" d="M57.721,152.061a1.028,1.028,0,0,1-.954-1.411,24.636,24.636,0,0,1,1.851-3.691,1.027,1.027,0,1,1,1.754,1.071,22.667,22.667,0,0,0-1.7,3.385A1.029,1.029,0,0,1,57.721,152.061Z" transform="translate(-56.693 -146.467)" fill="#fc0"/>
      </g>
      <g id="Grupo_1050" data-name="Grupo 1050" transform="translate(35.224 137.595)">
        <path id="Caminho_3076" data-name="Caminho 3076" d="M61.492,147.308a1.029,1.029,0,0,1-.727-1.756,24.573,24.573,0,0,1,17.48-7.239,1.029,1.029,0,1,1,0,2.057,22.522,22.522,0,0,0-16.026,6.637A1.025,1.025,0,0,1,61.492,147.308Z" transform="translate(-60.464 -138.313)" fill="#fc0"/>
      </g>
      <g id="Grupo_1051" data-name="Grupo 1051" transform="translate(53.633 111.362)">
        <path id="Caminho_3077" data-name="Caminho 3077" d="M113.994,119.479H77.577a4.017,4.017,0,0,0-3.9,4.127v5.148a4.017,4.017,0,0,0,3.9,4.127H117.89v-9.275A4.017,4.017,0,0,0,113.994,119.479Z" transform="translate(-73.681 -119.479)" fill="#85180e"/>
      </g>
      <g id="Grupo_1052" data-name="Grupo 1052" transform="translate(55.764 113.43)">
        <path id="Caminho_3078" data-name="Caminho 3078" d="M75.907,127.549a.7.7,0,0,1-.7-.7v-1.995a3.812,3.812,0,0,1,3.715-3.894h7.832a.7.7,0,0,1,0,1.393H78.926a2.42,2.42,0,0,0-2.322,2.5v1.995A.7.7,0,0,1,75.907,127.549Z" transform="translate(-75.211 -120.964)" fill="#fc0"/>
      </g>
      <g id="Grupo_1092" data-name="Grupo 1092" transform="translate(24.053)">
        <g id="Grupo_1053" data-name="Grupo 1053" transform="translate(46.885 92.985)">
          <path id="Caminho_3079" data-name="Caminho 3079" d="M86.15,109.405c-.333,11.6.9,15.19,14.443,15.179,16.557-.013,26.891,4.4,25.364,13.412C124,149.525,122.4,163.389,122.4,163.389a13.657,13.657,0,0,0,12.647,0s9.666-27.627,9.46-36.788c-.18-7.895-8.118-16.574-32.011-20.316Z" transform="translate(-86.105 -106.285)" fill="#85180e"/>
        </g>
        <g id="Grupo_1054" data-name="Grupo 1054" transform="translate(64.809 28.015)">
          <path id="Caminho_3080" data-name="Caminho 3080" d="M101.1,59.64l-2.129,9.641,10.911,4.855,3.535-8.373Z" transform="translate(-98.974 -59.64)" fill="#fc8"/>
        </g>
        <g id="Grupo_1055" data-name="Grupo 1055" transform="translate(60.184 1.393)">
          <path id="Caminho_3081" data-name="Caminho 3081" d="M96.409,63.35c.834,6.658,20.053,16.585,29,14.192,6.858-1.837,7.679-30.385-9.516-35.916C102.782,37.411,92.766,45.463,96.409,63.35Z" transform="translate(-95.653 -40.527)" fill="#fc0"/>
        </g>
        <g id="Grupo_1056" data-name="Grupo 1056" transform="translate(63.28 4.597)">
          <path id="Caminho_3082" data-name="Caminho 3082" d="M98.906,52.16a.984.984,0,0,1-.191-.018,1.029,1.029,0,0,1-.822-1.2c.912-4.872,3.323-7.6,7.168-8.105a1.028,1.028,0,0,1,.269,2.038c-2.9.383-4.674,2.49-5.415,6.445A1.028,1.028,0,0,1,98.906,52.16Z" transform="translate(-97.876 -42.827)" fill="#fb981e"/>
        </g>
        <g id="Grupo_1057" data-name="Grupo 1057" transform="translate(79.026 1.1)">
          <path id="Caminho_3083" data-name="Caminho 3083" d="M117.99,79.349a1.393,1.393,0,0,1-.092-2.783,9.554,9.554,0,0,0,1.833-.288c1.6-.426,3.378-4.071,3.524-9.98.233-9.406-3.73-20.248-13.107-23.264A1.393,1.393,0,1,1,111,40.383c10.747,3.456,15.3,15.542,15.039,25.985-.132,5.4-1.671,11.554-5.588,12.6a12.46,12.46,0,0,1-2.366.376Z" transform="translate(-109.181 -40.316)" fill="#85180e"/>
        </g>
        <g id="Grupo_1058" data-name="Grupo 1058" transform="translate(58.925 18.667)">
          <path id="Caminho_3084" data-name="Caminho 3084" d="M112.575,72.268a1.411,1.411,0,0,1-.492-.089c-7.826-2.954-16.076-8.547-16.7-13.525a38.915,38.915,0,0,1-.628-4.2,1.393,1.393,0,1,1,2.775-.256,37.428,37.428,0,0,0,.6,4.006c.426,3.367,7.119,8.421,14.937,11.37a1.393,1.393,0,0,1-.492,2.7Z" transform="translate(-94.749 -52.928)" fill="#85180e"/>
        </g>
        <g id="Grupo_1059" data-name="Grupo 1059" transform="translate(66.81)">
          <path id="Caminho_3085" data-name="Caminho 3085" d="M101.8,43.408a1.393,1.393,0,0,1-.546-2.674,16.248,16.248,0,0,1,7.48-1.166,1.393,1.393,0,0,1-.18,2.78,13.543,13.543,0,0,0-6.208.949A1.378,1.378,0,0,1,101.8,43.408Z" transform="translate(-100.41 -39.527)" fill="#85180e"/>
        </g>
        <g id="Grupo_1060" data-name="Grupo 1060" transform="translate(46.797 39.71)">
          <path id="Caminho_3086" data-name="Caminho 3086" d="M94.288,75.249c-6.356,9.994-8.679,31.218-8.18,49.249,0,0,18.681,5.4,30.534-2.776,0,0,3.382-12.916-.054-16.923s3.294-25.149,1.649-30.35S102.249,62.728,94.288,75.249Z" transform="translate(-86.042 -68.037)" fill="#fc0"/>
        </g>
        <g id="Grupo_1061" data-name="Grupo 1061" transform="translate(49.939 45.53)">
          <path id="Caminho_3087" data-name="Caminho 3087" d="M89.691,83.347a1.408,1.408,0,0,1-.425-.067,1.392,1.392,0,0,1-.9-1.751,37.811,37.811,0,0,1,3.861-8.671,1.393,1.393,0,0,1,2.351,1.5,35.028,35.028,0,0,0-3.56,8.023A1.394,1.394,0,0,1,89.691,83.347Z" transform="translate(-88.298 -72.215)" fill="#85180e"/>
        </g>
        <g id="Grupo_1062" data-name="Grupo 1062" transform="translate(45.403 51.1)">
          <path id="Caminho_3088" data-name="Caminho 3088" d="M99.935,124.449a54.553,54.553,0,0,1-13.821-1.823,1.393,1.393,0,0,1-1.006-1.3,155.8,155.8,0,0,1,2.273-32.249,1.393,1.393,0,1,1,2.737.52,151.98,151.98,0,0,0-2.252,30.6c3.865.919,18.285,3.747,27.95-2.549,1.181-4.8,2.185-12.732.107-15.154-2.187-2.552-1.33-8.873.226-18.221.408-2.45.794-4.766,1.052-6.838a1.392,1.392,0,0,1,2.763.345c-.265,2.127-.655,4.47-1.067,6.952-1,5.988-2.362,14.192-.859,15.948,3.8,4.429.709,16.787.344,18.181a1.387,1.387,0,0,1-.556.794C112.416,123.389,105.756,124.449,99.935,124.449Z" transform="translate(-85.041 -76.214)" fill="#85180e"/>
        </g>
        <g id="Grupo_1063" data-name="Grupo 1063" transform="translate(61.304 34.139)">
          <path id="Caminho_3089" data-name="Caminho 3089" d="M96.457,70.969s.189-6.169,1.722-6.838,12.543,2.155,14.317,9.41C112.5,73.542,104.888,67.122,96.457,70.969Z" transform="translate(-96.457 -64.037)" fill="#fb981e"/>
        </g>
        <g id="Grupo_1064" data-name="Grupo 1064" transform="translate(59.912 32.747)">
          <path id="Caminho_3090" data-name="Caminho 3090" d="M96.851,72.755h-.045a1.389,1.389,0,0,1-1.348-1.433c.1-3.217.621-7.23,2.557-8.073.231-.1.933-.405,2.975-.021a1.392,1.392,0,0,1-.514,2.737,6.985,6.985,0,0,0-1.293-.141,16.37,16.37,0,0,0-.942,5.583A1.394,1.394,0,0,1,96.851,72.755Z" transform="translate(-95.457 -63.037)" fill="#85180e"/>
        </g>
        <g id="Grupo_1065" data-name="Grupo 1065" transform="translate(82.328 149.982)">
          <path id="Caminho_3091" data-name="Caminho 3091" d="M112.4,147.313l-.841,7.473a1.275,1.275,0,0,0,1.268,1.418h24.367s2.879-10.143-12.146-8.891Z" transform="translate(-111.551 -147.206)" fill="#85180e"/>
        </g>
        <g id="Grupo_1083" data-name="Grupo 1083" transform="translate(0 32.746)">
          <g id="Grupo_1066" data-name="Grupo 1066" transform="translate(1.392 7.96)">
            <rect id="Retângulo_721" data-name="Retângulo 721" width="45.237" height="45.237" rx="3.476" fill="#fc0"/>
          </g>
          <g id="Grupo_1067" data-name="Grupo 1067" transform="translate(5.965 7.96)">
            <rect id="Retângulo_722" data-name="Retângulo 722" width="1.446" height="45.237" fill="#85180e"/>
          </g>
          <g id="Grupo_1068" data-name="Grupo 1068" transform="translate(12.593 19.348)">
            <path id="Caminho_3092" data-name="Caminho 3092" d="M61.485,76.928v24.7a3.943,3.943,0,0,0,4.063,3.811h4.229a3.943,3.943,0,0,0,4.063-3.811v-24.7C70.667,79.12,64.657,79.434,61.485,76.928Z" transform="translate(-61.485 -76.928)" fill="#fb981e"/>
          </g>
          <g id="Grupo_1069" data-name="Grupo 1069" transform="translate(12.593 19.348)">
            <rect id="Retângulo_723" data-name="Retângulo 723" width="12.354" height="4.303" fill="#fb981e"/>
          </g>
          <g id="Grupo_1070" data-name="Grupo 1070" transform="translate(29.58 19.348)">
            <path id="Caminho_3093" data-name="Caminho 3093" d="M73.681,76.928v24.7a3.943,3.943,0,0,0,4.063,3.811h4.229a3.943,3.943,0,0,0,4.063-3.811v-24.7C82.863,79.12,76.853,79.434,73.681,76.928Z" transform="translate(-73.681 -76.928)" fill="#fb981e"/>
          </g>
          <g id="Grupo_1071" data-name="Grupo 1071" transform="translate(29.58 19.348)">
            <rect id="Retângulo_724" data-name="Retângulo 724" width="12.354" height="5.127" fill="#fb981e"/>
          </g>
          <g id="Grupo_1072" data-name="Grupo 1072" transform="translate(28.884 18.652)">
            <path id="Caminho_3094" data-name="Caminho 3094" d="M86.232,87.03a.7.7,0,0,1-.7-.7v-8c-3.089,1.524-7.739,1.8-10.962.071v3.846a.7.7,0,1,1-1.393,0V77.124a.7.7,0,0,1,1.128-.546c3.02,2.385,8.675,1.944,11.527-.026a.7.7,0,0,1,1.092.572v9.21A.7.7,0,0,1,86.232,87.03Z" transform="translate(-73.181 -76.428)" fill="#85180e"/>
          </g>
          <g id="Grupo_1073" data-name="Grupo 1073" transform="translate(28.884 34.482)">
            <path id="Caminho_3095" data-name="Caminho 3095" d="M82.169,101.862H77.94a4.643,4.643,0,0,1-4.759-4.507.7.7,0,0,1,1.393,0,3.251,3.251,0,0,0,3.367,3.114h4.229a3.252,3.252,0,0,0,3.367-3.114V88.489a.7.7,0,0,1,1.393,0v8.866A4.644,4.644,0,0,1,82.169,101.862Z" transform="translate(-73.181 -87.793)" fill="#85180e"/>
          </g>
          <g id="Grupo_1074" data-name="Grupo 1074" transform="translate(11.896 18.652)">
            <path id="Caminho_3096" data-name="Caminho 3096" d="M74.036,87.03a.7.7,0,0,1-.7-.7v-8c-3.091,1.522-7.74,1.8-10.962.071v3.846a.7.7,0,1,1-1.393,0V77.124a.7.7,0,0,1,1.128-.546c3.018,2.386,8.675,1.946,11.526-.026a.7.7,0,0,1,1.093.572v9.21A.7.7,0,0,1,74.036,87.03Z" transform="translate(-60.985 -76.428)" fill="#85180e"/>
          </g>
          <g id="Grupo_1075" data-name="Grupo 1075" transform="translate(11.896 34.482)">
            <path id="Caminho_3097" data-name="Caminho 3097" d="M69.973,101.862H65.744a4.644,4.644,0,0,1-4.759-4.507.7.7,0,0,1,1.393,0,3.251,3.251,0,0,0,3.367,3.114h4.229a3.251,3.251,0,0,0,3.367-3.114V88.489a.7.7,0,0,1,1.393,0v8.866A4.644,4.644,0,0,1,69.973,101.862Z" transform="translate(-60.985 -87.793)" fill="#85180e"/>
          </g>
          <g id="Grupo_1076" data-name="Grupo 1076" transform="translate(9.733 1.393)">
            <path id="Caminho_3098" data-name="Caminho 3098" d="M85.066,64.037H66A6.567,6.567,0,0,0,59.432,70.6h32.2A6.567,6.567,0,0,0,85.066,64.037Z" transform="translate(-59.432 -64.037)" fill="#fb981e"/>
          </g>
          <g id="Grupo_1077" data-name="Grupo 1077" transform="translate(16.301 1.393)">
            <path id="Caminho_3099" data-name="Caminho 3099" d="M64.165,70.6l-.018-6.567h1.446l.018,6.567Z" transform="translate(-64.147 -64.037)" fill="#85180e"/>
          </g>
          <g id="Grupo_1078" data-name="Grupo 1078" transform="translate(0 24.935)">
            <path id="Caminho_3100" data-name="Caminho 3100" d="M65.037,110.594h-6.36a6.241,6.241,0,0,1-6.233-6.234V82.332a1.393,1.393,0,0,1,2.786,0V104.36a3.451,3.451,0,0,0,3.447,3.449h6.36a1.393,1.393,0,1,1,0,2.786Z" transform="translate(-52.444 -80.939)" fill="#85180e"/>
          </g>
          <g id="Grupo_1079" data-name="Grupo 1079" transform="translate(0 6.566)">
            <path id="Caminho_3101" data-name="Caminho 3101" d="M53.837,81.227a1.392,1.392,0,0,1-1.393-1.393V73.985a6.241,6.241,0,0,1,6.233-6.234H79.4a1.393,1.393,0,1,1,0,2.786H58.677a3.452,3.452,0,0,0-3.447,3.449v5.849A1.392,1.392,0,0,1,53.837,81.227Z" transform="translate(-52.444 -67.751)" fill="#85180e"/>
          </g>
          <g id="Grupo_1080" data-name="Grupo 1080" transform="translate(30.628 6.566)">
            <path id="Caminho_3102" data-name="Caminho 3102" d="M85.594,115.775H75.826a1.393,1.393,0,1,1,0-2.786h9.768a3.451,3.451,0,0,0,3.449-3.449V73.985a3.452,3.452,0,0,0-3.449-3.449,1.393,1.393,0,0,1,0-2.786,6.242,6.242,0,0,1,6.234,6.234v35.555A6.242,6.242,0,0,1,85.594,115.775Z" transform="translate(-74.433 -67.751)" fill="#85180e"/>
          </g>
          <g id="Grupo_1081" data-name="Grupo 1081" transform="translate(8.342)">
            <path id="Caminho_3103" data-name="Caminho 3103" d="M59.826,72.389A1.392,1.392,0,0,1,58.433,71a7.967,7.967,0,0,1,7.959-7.959h8.647a1.393,1.393,0,0,1,0,2.786H66.392A5.179,5.179,0,0,0,61.219,71,1.392,1.392,0,0,1,59.826,72.389Z" transform="translate(-58.433 -63.037)" fill="#85180e"/>
          </g>
          <g id="Grupo_1082" data-name="Grupo 1082" transform="translate(33.973)">
            <path id="Caminho_3104" data-name="Caminho 3104" d="M84.8,72.389A1.392,1.392,0,0,1,83.4,71a5.18,5.18,0,0,0-5.176-5.173,1.393,1.393,0,0,1,0-2.786A7.969,7.969,0,0,1,86.189,71,1.392,1.392,0,0,1,84.8,72.389Z" transform="translate(-76.835 -63.037)" fill="#85180e"/>
          </g>
        </g>
        <g id="Grupo_1084" data-name="Grupo 1084" transform="translate(45.237 38.164)">
          <path id="Caminho_3105" data-name="Caminho 3105" d="M85.922,76.386s18.861-16.613,31.952-3.34l.673,2.18c-4.915-6.141-20.17-4.58-32.625,8.423Z" transform="translate(-84.529 -66.543)" fill="#85180e"/>
          <path id="Caminho_3106" data-name="Caminho 3106" d="M86.315,85.426a1.4,1.4,0,0,1-1.393-1.393V76.77a1.388,1.388,0,0,1,.472-1.045c.2-.177,20.008-17.32,33.865-3.273a1.384,1.384,0,0,1,.34.567l.671,2.18a1.393,1.393,0,0,1-2.418,1.281c-1.4-1.745-3.907-2.784-7.067-2.925-5.8-.265-15.005,2.61-23.464,11.44A1.392,1.392,0,0,1,86.315,85.426Zm1.393-8v3.308c8.435-7.673,17.365-10.226,23.2-9.956.446.02.883.054,1.309.1-4.08-1.761-8.853-1.593-14.264.518A41.064,41.064,0,0,0,87.708,77.421Z" transform="translate(-84.922 -66.927)" fill="#85180e"/>
        </g>
        <g id="Grupo_1085" data-name="Grupo 1085" transform="translate(45.237 65.755)">
          <path id="Caminho_3107" data-name="Caminho 3107" d="M85.922,88.923s5.489,6.807,25-1.189l.883,1.159s-15.4,8.326-25.885,2.325Z" transform="translate(-84.529 -86.343)" fill="#85180e"/>
          <path id="Caminho_3108" data-name="Caminho 3108" d="M95.335,95.187a19.35,19.35,0,0,1-9.712-2.368,1.4,1.4,0,0,1-.7-1.209v-2.3a1.392,1.392,0,0,1,2.461-.891c.121.132,5.471,5.766,23.406-1.585a1.4,1.4,0,0,1,1.635.444l.883,1.157a1.4,1.4,0,0,1-.446,2.071C112.386,90.767,104.074,95.187,95.335,95.187Z" transform="translate(-84.922 -86.736)" fill="#85180e"/>
        </g>
        <g id="Grupo_1086" data-name="Grupo 1086" transform="translate(112.75 65.124)">
          <path id="Caminho_3109" data-name="Caminho 3109" d="M133.393,88.165s5.181-2.126,9.423-1.859,4.924,6.1,4.924,6.1V95.5h-2.007l-.531-1.149a70.661,70.661,0,0,0-10.693,1.811A17.128,17.128,0,0,0,133.393,88.165Z" transform="translate(-133.393 -86.282)" fill="#85180e"/>
        </g>
        <g id="Grupo_1087" data-name="Grupo 1087" transform="translate(65.187 43.452)">
          <path id="Caminho_3110" data-name="Caminho 3110" d="M103.095,71.525c5.012-2.509,9.77,1.139,14.111,7.141,7.95,10.992,11.332,13.136,18.788,12.867,9.81-.352,11.334,1.556,12.14,7.161,1.028,7.155-5.424,10.072-19.575,9.147-9-.588-22.5-6.985-28.487-24.325C98.679,79.485,98.657,73.747,103.095,71.525Z" transform="translate(-99.245 -70.723)" fill="#fc0"/>
        </g>
        <g id="Grupo_1088" data-name="Grupo 1088" transform="translate(93.108 62.831)">
          <path id="Caminho_3111" data-name="Caminho 3111" d="M125.375,103.932q-2.233,0-4.78-.166a1.4,1.4,0,0,1-1.3-1.482,1.422,1.422,0,0,1,1.481-1.3c8.928.579,14.628-.4,16.954-2.91a5.329,5.329,0,0,0,1.152-4.649c-.674-4.7-1.389-6.308-10.71-5.967a1.361,1.361,0,0,1-1.443-1.341,1.392,1.392,0,0,1,1.341-1.442c9.661-.35,12.576,1.447,13.568,8.353a8.042,8.042,0,0,1-1.862,6.938C137.316,102.625,132.583,103.932,125.375,103.932Z" transform="translate(-119.291 -84.636)" fill="#85180e"/>
        </g>
        <g id="Grupo_1089" data-name="Grupo 1089" transform="translate(81.755 50.002)">
          <path id="Caminho_3112" data-name="Caminho 3112" d="M123.842,89.864a1.409,1.409,0,0,1-.6-.135c-3.435-1.632-6.644-4.91-11.839-12.094A1.393,1.393,0,0,1,113.661,76c4.892,6.764,7.814,9.8,10.779,11.21a1.394,1.394,0,0,1-.6,2.652Z" transform="translate(-111.14 -75.426)" fill="#85180e"/>
        </g>
        <g id="Grupo_1091" data-name="Grupo 1091" transform="translate(63.784 41.907)">
          <g id="Grupo_1090" data-name="Grupo 1090">
            <path id="Caminho_3113" data-name="Caminho 3113" d="M116.033,105.42a1.378,1.378,0,0,1-.717-.2c-5.17-3.114-12.172-9.253-16.166-20.813-1.734-5.021-1.258-11.2,3.718-13.69a8.956,8.956,0,0,1,8.846.136,1.392,1.392,0,1,1-1.347,2.438,6.154,6.154,0,0,0-6.229-.095c-3.985,1.995-3.353,7.413-2.354,10.3,3.72,10.77,10.194,16.459,14.969,19.336a1.393,1.393,0,0,1-.72,2.587Z" transform="translate(-98.238 -69.614)" fill="#85180e"/>
          </g>
        </g>
      </g>
      <g id="Grupo_1093" data-name="Grupo 1093" transform="translate(97.252 11.417)">
        <path id="Caminho_3114" data-name="Caminho 3114" d="M124.249,51.17c-4.6-.059-11.878-2.244-15.3-3.361a1.728,1.728,0,0,0-2.237,1.364L105.037,59.2a2.922,2.922,0,0,0,1.485,3.056c3.646,1.979,12.144,5.846,19.6,3.655A33.9,33.9,0,0,0,124.249,51.17Z" transform="translate(-104.997 -47.724)" fill="#85180e"/>
      </g>
      <g id="Grupo_1094" data-name="Grupo 1094" transform="translate(141.464 68.761)">
        <circle id="Elipse_125" data-name="Elipse 125" cx="3.537" cy="3.537" r="3.537" fill="#fb981e"/>
      </g>
      <g id="Grupo_1095" data-name="Grupo 1095" transform="translate(140.768 68.064)">
        <path id="Caminho_3115" data-name="Caminho 3115" d="M140.472,96.86a4.234,4.234,0,1,1,4.233-4.233A4.238,4.238,0,0,1,140.472,96.86Zm0-7.074a2.841,2.841,0,1,0,2.84,2.841A2.844,2.844,0,0,0,140.472,89.786Z" transform="translate(-136.239 -88.393)" fill="#85180e"/>
      </g>
      <g id="Grupo_1096" data-name="Grupo 1096" transform="translate(38.969 123.371)">
        <path id="Caminho_3116" data-name="Caminho 3116" d="M122.026,139.018a1.392,1.392,0,0,1-1.393-1.393v-6.739H87.141a37.36,37.36,0,0,0-21.787,6.949,1.393,1.393,0,1,1-1.616-2.269,40.128,40.128,0,0,1,23.4-7.466h34.885a1.392,1.392,0,0,1,1.393,1.393v8.131A1.392,1.392,0,0,1,122.026,139.018Z" transform="translate(-63.153 -128.101)" fill="#85180e"/>
      </g>
      <g id="Grupo_1097" data-name="Grupo 1097" transform="translate(96.45 140.265)">
        <path id="Caminho_3117" data-name="Caminho 3117" d="M140.039,159.968H105.814a1.392,1.392,0,0,1-1.393-1.393V141.623a1.393,1.393,0,0,1,2.786,0v15.56h32.832a4.478,4.478,0,0,0,3.883-2.23,70.085,70.085,0,0,0,5.2-11.336,1.392,1.392,0,1,1,2.623.936,72.95,72.95,0,0,1-5.408,11.788A7.274,7.274,0,0,1,140.039,159.968Z" transform="translate(-104.421 -140.23)" fill="#85180e"/>
      </g>
      <g id="Grupo_1098" data-name="Grupo 1098" transform="translate(145.705 104.948)">
        <path id="Caminho_3118" data-name="Caminho 3118" d="M141.371,121.537a1.393,1.393,0,0,1-1.391-1.347c-.043-1.307-.109-2.587-.192-3.832a1.392,1.392,0,1,1,2.779-.185c.086,1.276.153,2.587.2,3.925a1.393,1.393,0,0,1-1.346,1.437Z" transform="translate(-139.784 -114.874)" fill="#85180e"/>
      </g>
      <g id="Grupo_1099" data-name="Grupo 1099" transform="translate(142.648 84.937)">
        <path id="Caminho_3119" data-name="Caminho 3119" d="M141.458,117.1a1.391,1.391,0,0,1-1.38-1.226,116.8,116.8,0,0,0-2.449-13.643,1.393,1.393,0,0,1,2.706-.662,119.808,119.808,0,0,1,2.507,13.972,1.394,1.394,0,0,1-1.217,1.55Q141.542,117.1,141.458,117.1Z" transform="translate(-137.589 -100.507)" fill="#85180e"/>
      </g>
      <g id="Grupo_1100" data-name="Grupo 1100" transform="translate(145.701 57.681)">
        <path id="Caminho_3120" data-name="Caminho 3120" d="M170.716,129.754a1.394,1.394,0,0,1-1.248-.77,59.782,59.782,0,0,0-11.31-15.849c-9.366-9.268-13.647-19.116-12.742-29.3a13.728,13.728,0,0,0-3.676,1.054,1.393,1.393,0,0,1-1.132-2.546,16.091,16.091,0,0,1,6.386-1.405,1.395,1.395,0,0,1,1.379,1.593c-1.432,9.864,2.52,19.494,11.745,28.622a62.559,62.559,0,0,1,11.842,16.585,1.393,1.393,0,0,1-1.244,2.015Z" transform="translate(-139.781 -80.939)" fill="#85180e"/>
      </g>
      <g id="Grupo_1101" data-name="Grupo 1101" transform="translate(141.074 123.798)">
        <path id="Caminho_3121" data-name="Caminho 3121" d="M137.852,186.521a1.392,1.392,0,0,1-.366-2.736,6.894,6.894,0,0,0,5.067-6.64v-7.877a1.374,1.374,0,0,1,.1-.515c.932-15.521,10.845-28.3,24.765-31.871a31.233,31.233,0,0,1,7.158-.969,3.409,3.409,0,0,0,2.58-1.224,3.176,3.176,0,0,0,.685-2.607c-.11-.631-.235-1.3-.377-2.006a1.393,1.393,0,1,1,2.731-.547q.219,1.091.39,2.074a6,6,0,0,1-1.28,4.86,6.193,6.193,0,0,1-4.679,2.237,28.449,28.449,0,0,0-6.516.882c-12.844,3.294-21.964,15.227-22.7,29.692a1.372,1.372,0,0,1-.074.383v7.491a9.685,9.685,0,0,1-7.12,9.327A1.339,1.339,0,0,1,137.852,186.521Z" transform="translate(-136.459 -128.407)" fill="#85180e"/>
      </g>
      <g id="Grupo_1102" data-name="Grupo 1102" transform="translate(77.827 171.144)">
        <path id="Caminho_3122" data-name="Caminho 3122" d="M123.911,173.457H100.717a9.677,9.677,0,0,1-9.666-9.665,1.393,1.393,0,0,1,2.786,0,6.887,6.887,0,0,0,6.881,6.879h23.194a1.393,1.393,0,1,1,0,2.786Z" transform="translate(-91.051 -162.399)" fill="#85180e"/>
      </g>
      <g id="Grupo_1103" data-name="Grupo 1103" transform="translate(126.262 179.416)">
        <path id="Caminho_3123" data-name="Caminho 3123" d="M136.4,171.124h-9.178a1.393,1.393,0,1,1,0-2.786H136.4a1.393,1.393,0,1,1,0,2.786Z" transform="translate(-125.825 -168.338)" fill="#85180e"/>
      </g>
      <g id="Grupo_1104" data-name="Grupo 1104" transform="translate(107.799 139.375)">
        <path id="Caminho_3124" data-name="Caminho 3124" d="M120.717,140.984h-7.452a.7.7,0,0,1,0-1.393h7.452a.7.7,0,0,1,0,1.393Z" transform="translate(-112.569 -139.591)" fill="#fc0"/>
      </g>
      <g id="Grupo_1105" data-name="Grupo 1105" transform="translate(118.616 139.375)">
        <path id="Caminho_3125" data-name="Caminho 3125" d="M124.894,140.984h-3.862a.7.7,0,0,1,0-1.393h3.862a.7.7,0,0,1,0,1.393Z" transform="translate(-120.335 -139.591)" fill="#fc0"/>
      </g>
      <g id="Grupo_1106" data-name="Grupo 1106" transform="translate(69.987 113.43)">
        <path id="Caminho_3126" data-name="Caminho 3126" d="M90.128,122.357h-4.01a.7.7,0,1,1,0-1.393h4.01a.7.7,0,0,1,0,1.393Z" transform="translate(-85.422 -120.964)" fill="#fc0"/>
      </g>
      <g id="Grupo_1107" data-name="Grupo 1107" transform="translate(24.053 194.141)">
        <path id="Caminho_3127" data-name="Caminho 3127" d="M99.241,181.7h-45.4a1.393,1.393,0,0,1,0-2.786h45.4a1.393,1.393,0,1,1,0,2.786Z" transform="translate(-52.444 -178.91)" fill="#85180e"/>
      </g>
      <g id="Grupo_1108" data-name="Grupo 1108" transform="translate(0 194.141)">
        <path id="Caminho_3128" data-name="Caminho 3128" d="M52.3,181.7H36.568a1.393,1.393,0,1,1,0-2.786H52.3a1.393,1.393,0,1,1,0,2.786Z" transform="translate(-35.175 -178.91)" fill="#85180e"/>
      </g>
      <g id="Grupo_1109" data-name="Grupo 1109" transform="translate(116.634 194.141)">
        <path id="Caminho_3129" data-name="Caminho 3129" d="M130.6,181.7H120.3a1.393,1.393,0,0,1,0-2.786h10.3a1.393,1.393,0,0,1,0,2.786Z" transform="translate(-118.912 -178.91)" fill="#85180e"/>
      </g>
      <g id="Grupo_1110" data-name="Grupo 1110" transform="translate(135.518 194.141)">
        <path id="Caminho_3130" data-name="Caminho 3130" d="M148.932,181.744c-2.149,0-4.165,0-5.981,0-10.108-.01-10.108-.01-10.481-.9l2.587-1.035-1.3.5.121-1.385c1.417.081,42.79.022,58.611-.008h0a1.393,1.393,0,0,1,0,2.786s-14.674.026-29.353.04C158.223,181.742,153.3,181.744,148.932,181.744Z" transform="translate(-132.47 -178.91)" fill="#85180e"/>
      </g>
      <g id="Grupo_1111" data-name="Grupo 1111" transform="translate(200.842 194.141)">
        <path id="Caminho_3131" data-name="Caminho 3131" d="M191.728,181.7H180.762a1.393,1.393,0,0,1,0-2.786h10.966a1.393,1.393,0,1,1,0,2.786Z" transform="translate(-179.369 -178.91)" fill="#85180e"/>
      </g>
    </g>
  </g>
</svg>
